<?xml version="1.0" encoding="iso-8859-1"?>
<!-- Generator: Adobe Illustrator 24.2.1, SVG Export Plug-In . SVG Version: 6.00 Build 0)  -->
<svg version="1.1" id="Layer_1" xmlns="http://www.w3.org/2000/svg" xmlns:xlink="http://www.w3.org/1999/xlink" x="0px" y="0px"
	 viewBox="0 0 792 612" style="enable-background:new 0 0 792 612;" xml:space="preserve">
<path style="fill:#33862B;" d="M364.051,316.478c1.612,1.867,3.332,3.642,4.98,5.472c1.443,1.604,1.528,2.34,0.529,4.049
	c1.534,1.368,3.066,2.743,4.61,4.118c2.164,1.931,4.376,3.787,7.185,4.746c0.523,0.18,1.027,0.442,1.559,0.591
	c0.347,0.097,0.769,0.18,1.079,0.06c5.666-2.175,11.018-4.961,16.069-8.33c9.792-6.524,17.58-14.959,23.771-24.912
	c3.878-6.23,7.076-12.816,9.775-19.625c2.7-6.805,5.246-13.661,7.851-20.501c0.48-1.246,0.965-2.495,1.447-3.745
	c-0.037-0.021-0.074-0.045-0.118-0.07c-0.132,0.11-0.283,0.209-0.401,0.331c-2.321,2.435-4.667,4.847-6.949,7.315
	c-1.335,1.439-2.545,2.985-3.861,4.434c-0.841,0.932-1.437,0.932-2.22,0.155c-0.909-0.901-1.468-0.85-2.22,0.225
	c-0.23,0.325-0.44,0.668-0.624,1.013c-1.195,2.189-2.359,4.397-3.572,6.573c-0.556,1.017-1.145,2.03-1.829,2.974
	c-0.647,0.895-1.36,0.901-2.143,0.132c-0.447-0.446-0.858-0.94-1.253-1.437c-1.244-1.575-2.474-3.161-3.758-4.8
	c-0.145,0.256-0.258,0.432-0.353,0.622c-1.786,3.636-3.562,7.284-5.376,10.918c-0.289,0.589-0.651,1.158-1.073,1.66
	c-0.756,0.903-1.519,0.936-2.404,0.151c-0.36-0.316-0.67-0.699-1.023-1.067c-0.777,1.658-0.647,3.378-0.781,5.054
	c-0.331,4.176-0.552,8.367-1.052,12.518c-0.194,1.59-0.965,3.121-1.569,4.634c-0.296,0.744-0.916,1.251-1.817,1.158
	c-0.785-0.083-1.391-0.713-1.621-1.643c-0.076-0.312-0.136-0.622-0.196-0.938c-0.504-2.652-1.007-5.31-1.509-7.967
	c-0.68-3.619-1.339-7.239-2.032-10.856c-0.459-2.443-1.141-4.8-2.697-6.813c-0.153-0.201-0.244-0.473-0.294-0.724
	c-0.302-1.37-0.564-2.751-0.876-4.122c-1.298-5.819-2.605-11.633-3.925-17.444c-0.316-1.414-0.695-2.805-1.054-4.233
	c-0.99,0.659-2.073,2.084-2.799,3.609c-1.205,2.553-1.674,5.298-2.166,8.039c-0.244,1.352-0.482,2.697-0.761,4.246
	c-1.625-1.525-3.109-2.919-4.688-4.399c-0.422,2.177-0.275,4.171-0.056,6.168c0.262,2.427,0.537,4.853,0.744,7.284
	c0.108,1.311-0.506,1.685-1.724,1.147c-0.118-0.054-0.233-0.13-0.353-0.18c-1.773-0.819-3.547-1.637-5.567-2.565
	c0.271,1.517,0.444,2.822,0.748,4.095c1.771,7.425,3.582,14.833,5.362,22.254c0.147,0.61,0.234,1.257,0.219,1.891
	c-0.025,1.065-0.719,1.604-1.755,1.397c-0.539-0.108-1.091-0.265-1.571-0.525c-2.708-1.437-5.401-2.929-8.107-4.37
	c-1.273-0.684-2.574-1.308-3.958-2.009c-0.159,2.268,0.205,4.304,1.007,6.269C360.093,311.488,361.967,314.064,364.051,316.478"/>
<path style="fill:#33862B;" d="M454.723,328.236c-2.412,0.368-4.808,0.841-7.21,1.253c-1.36,0.236-1.78-0.196-1.546-1.532
	c0.07-0.405,0.076-0.819,0.12-1.372c-0.668,0.128-1.215,0.201-1.743,0.333c-2.786,0.734-5.554,1.575-8.365,2.199
	c-3.652,0.806-7.355,0.992-11.059,0.405c-0.511-0.079-1.346-0.389-1.377-0.67c-0.07-0.552,0.331-1.153,0.546-1.726
	c0.019-0.064,0.107-0.112,0.165-0.161c1.296-1.021,2.497-2.168,3.89-3.026c2.861-1.767,5.823-3.359,8.727-5.06
	c0.372-0.225,0.695-0.616,0.932-0.998c0.792-1.282,1.453-2.656,2.326-3.884c1.929-2.722,4.492-4.843,7.005-7.012
	c0.992-0.862,1.966-1.738,3.061-2.704c-0.395-0.107-0.618-0.182-0.841-0.215c-2.235-0.32-4.467-0.62-6.697-0.949
	c-1.259-0.188-2.522-0.353-3.768-0.635c-1.385-0.308-1.726-1.003-1.242-2.346c0.178-0.494,0.436-0.965,0.694-1.428
	c2.423-4.351,4.882-8.688,7.276-13.056c0.75-1.364,1.321-2.817,2.038-4.343c-0.579,0-1.019,0.021-1.457,0
	c-2.613-0.145-3.454-1.021-3.169-3.621c0.5-4.638,1.122-9.263,1.654-13.899c0.145-1.247,0.157-2.509,0.227-3.762
	c-0.093-0.012-0.188-0.017-0.277-0.025c-1.015,2.923-2.034,5.848-3.039,8.775c-2.96,8.597-5.893,17.204-9.688,25.489
	c-4.039,8.855-8.973,17.14-15.393,24.503c-5.43,6.224-11.642,11.534-18.651,15.89c-8.632,5.37-17.923,9.122-27.889,11.177
	c-1.021,0.213-2.053,0.426-3.183,0.655c-4.628,0.664-9.436,1.029-14.383,1.029c-7.282,0-14.265-0.765-20.766-2.152
	c0.941,1.034,2.394,2.354,4.603,3.979c4.779,0.709,9.761,1.093,14.887,1.093c6.094,0,12.952-0.415,20.72-2.071
	c0.285-0.054,0.568-0.124,0.86-0.221c2.286-0.767,4.589-1.494,6.848-2.317c3.041-1.114,6.042-2.307,9.062-3.46
	c1.04-0.391,1.623-0.258,2.143,0.583c1.67,2.708,4.043,4.651,6.844,6.013c3.295,1.59,6.666,2.995,10.015,4.454
	c1.497,0.655,3.068,0.866,4.665,0.473c0.783-0.19,1.437-0.015,2.137,0.285c3.435,1.476,6.958,2.204,10.68,1.215
	c1.112-0.304,1.205-0.43,0.949-1.538c-0.06-0.252-0.155-0.508-0.263-0.75c-0.391-0.868-0.792-1.73-1.197-2.596
	c-0.976-2.1-0.593-2.851,1.71-3.119c3.63-0.415,7.274-0.757,10.908-1.127c1.437-0.141,2.879-0.271,4.395-0.415
	c-0.248-0.368-0.463-0.67-0.659-0.974c-1.124-1.68-0.959-2.451,0.918-3.251c1.819-0.773,3.708-1.389,5.577-2.053
	c1.278-0.457,2.201-1.209,2.524-2.609c0.083-0.335,0.407-0.676,0.705-0.889c1.405-1.005,2.84-1.951,4.25-2.939
	c1.825-1.286,3.634-2.59,4.862-4.517c0.176-0.277,0.32-0.577,0.577-1.058C458.338,327.798,456.515,327.955,454.723,328.236"/>
<g>
	<polygon style="fill:#33862B;" points="433.441,351.785 433.441,352.41 432.42,352.41 432.42,355.695 431.671,355.695 
		431.671,352.41 430.647,352.41 430.647,351.785 	"/>
	<polygon style="fill:#33862B;" points="433.978,355.691 433.978,351.785 435.028,351.785 435.779,354.513 435.792,354.513 
		436.546,351.785 437.608,351.785 437.608,355.691 436.961,355.691 436.961,352.618 436.951,352.618 436.074,355.691 
		435.502,355.691 434.638,352.618 434.626,352.618 434.626,355.691 	"/>
	<polygon style="fill:#33862B;" points="438.471,355.798 437.883,355.798 439.1,351.785 439.69,351.785 	"/>
	<polygon style="fill:#33862B;" points="439.972,355.691 439.972,351.785 441.022,351.785 441.776,354.513 441.783,354.513 
		442.543,351.785 443.605,351.785 443.605,355.691 442.955,355.691 442.955,352.618 442.942,352.618 442.065,355.691 
		441.493,355.691 440.629,352.618 440.623,352.618 440.623,355.691 	"/>
	<path style="fill:#33862B;" d="M446.448,352.973c-0.11-0.327-0.343-0.563-0.71-0.563c-0.5,0-0.801,0.468-0.801,1.383
		c-0.009,0.915,0.261,1.38,0.823,1.38c0.336,0,0.541-0.123,0.761-0.581l0.695,0.185c-0.232,0.679-0.742,1.021-1.455,1.021
		c-0.996,0-1.571-0.729-1.571-2.005c0-1.279,0.575-2.008,1.571-2.008c0.745,0,1.179,0.333,1.364,1.025L446.448,352.973z"/>
</g>
</svg>
